<mxfile host="app.diagrams.net" agent="Mozilla/5.0 (Windows NT 10.0; Win64; x64) AppleWebKit/537.36 (KHTML, like Gecko) Chrome/137.0.0.0 Safari/537.36" version="27.1.6">
  <diagram name="Administrar Cuentas" id="vw9vhfiDklUFKGKXbxMf">
    <mxGraphModel grid="1" page="1" gridSize="10" guides="1" tooltips="1" connect="1" arrows="1" fold="1" pageScale="1" pageWidth="827" pageHeight="1169" math="0" shadow="0">
      <root>
        <mxCell id="0" />
        <mxCell id="1" parent="0" />
        <mxCell id="xUgybC_WN7sO-mHJ8C3r-164" value="1. Pulsa apartado &quot;Administrar eventos&quot;" style="html=1;verticalAlign=bottom;endArrow=block;labelBackgroundColor=none;fontFamily=Verdana;fontSize=11;edgeStyle=elbowEdgeStyle;elbow=vertical;" edge="1" parent="1">
          <mxGeometry relative="1" as="geometry">
            <mxPoint x="100" y="180" as="sourcePoint" />
            <mxPoint x="345" y="180" as="targetPoint" />
          </mxGeometry>
        </mxCell>
        <mxCell id="xUgybC_WN7sO-mHJ8C3r-165" value="4. Mostrar listado de eventos" style="html=1;verticalAlign=bottom;endArrow=open;labelBackgroundColor=none;fontFamily=Verdana;fontSize=11;elbow=vertical;entryX=1;entryY=0.25;entryDx=0;entryDy=0;" edge="1" parent="1" target="xUgybC_WN7sO-mHJ8C3r-207">
          <mxGeometry x="0.0015" relative="1" as="geometry">
            <mxPoint x="340" y="305" as="sourcePoint" />
            <mxPoint x="102.5" y="304.8" as="targetPoint" />
            <mxPoint as="offset" />
          </mxGeometry>
        </mxCell>
        <mxCell id="xUgybC_WN7sO-mHJ8C3r-166" value="5. Pulsar botón &quot;Ver evento&quot;" style="html=1;verticalAlign=bottom;endArrow=block;labelBackgroundColor=none;fontFamily=Verdana;fontSize=11;edgeStyle=elbowEdgeStyle;elbow=horizontal;" edge="1" parent="1">
          <mxGeometry x="0.0612" relative="1" as="geometry">
            <mxPoint x="96.98" y="339.8" as="sourcePoint" />
            <mxPoint x="341.98" y="339.8" as="targetPoint" />
            <mxPoint as="offset" />
          </mxGeometry>
        </mxCell>
        <mxCell id="xUgybC_WN7sO-mHJ8C3r-168" value="6. Solicitar datos del evento" style="html=1;verticalAlign=bottom;endArrow=open;labelBackgroundColor=none;fontFamily=Verdana;fontSize=11;elbow=vertical;entryX=0;entryY=0.25;entryDx=0;entryDy=0;" edge="1" parent="1" target="YYFsIK76gHKesapi2yxB-11">
          <mxGeometry relative="1" as="geometry">
            <mxPoint x="360" y="375" as="sourcePoint" />
            <mxPoint x="92.5" y="409.99999999999994" as="targetPoint" />
          </mxGeometry>
        </mxCell>
        <mxCell id="xUgybC_WN7sO-mHJ8C3r-169" value="9. Pulsar botón &quot;Editar evento&quot;" style="html=1;verticalAlign=bottom;endArrow=block;labelBackgroundColor=none;fontFamily=Verdana;fontSize=11;elbow=vertical;entryX=0;entryY=0.25;entryDx=0;entryDy=0;" edge="1" parent="1" target="xUgybC_WN7sO-mHJ8C3r-213">
          <mxGeometry x="0.0001" relative="1" as="geometry">
            <mxPoint x="98" y="475" as="sourcePoint" />
            <mxPoint x="342.5" y="480.04999999999995" as="targetPoint" />
            <mxPoint as="offset" />
          </mxGeometry>
        </mxCell>
        <mxCell id="xUgybC_WN7sO-mHJ8C3r-170" value="10. Mostrar formulario" style="html=1;verticalAlign=bottom;endArrow=open;labelBackgroundColor=none;fontFamily=Verdana;fontSize=11;elbow=vertical;entryX=1;entryY=0.25;entryDx=0;entryDy=0;" edge="1" parent="1" target="xUgybC_WN7sO-mHJ8C3r-215">
          <mxGeometry x="0.0015" relative="1" as="geometry">
            <mxPoint x="340" y="505" as="sourcePoint" />
            <mxPoint x="100" y="510.04999999999995" as="targetPoint" />
            <mxPoint as="offset" />
          </mxGeometry>
        </mxCell>
        <mxCell id="xUgybC_WN7sO-mHJ8C3r-171" value="11. Diligenciar formulario" style="html=1;verticalAlign=bottom;endArrow=block;labelBackgroundColor=none;fontFamily=Verdana;fontSize=11;elbow=horizontal;entryX=0;entryY=0.25;entryDx=0;entryDy=0;" edge="1" parent="1" target="YYFsIK76gHKesapi2yxB-17">
          <mxGeometry relative="1" as="geometry">
            <mxPoint x="100" y="555" as="sourcePoint" />
            <mxPoint x="347.5" y="550" as="targetPoint" />
          </mxGeometry>
        </mxCell>
        <mxCell id="xUgybC_WN7sO-mHJ8C3r-172" value="9: Pulsar botón &quot;Guardar&quot;" style="html=1;verticalAlign=bottom;endArrow=block;labelBackgroundColor=none;fontFamily=Verdana;fontSize=11;elbow=vertical;entryX=0;entryY=0.25;entryDx=0;entryDy=0;" edge="1" parent="1" target="YYFsIK76gHKesapi2yxB-19">
          <mxGeometry x="-0.1024" relative="1" as="geometry">
            <mxPoint x="103" y="595" as="sourcePoint" />
            <mxPoint x="347.5" y="600.03" as="targetPoint" />
            <mxPoint as="offset" />
          </mxGeometry>
        </mxCell>
        <mxCell id="xUgybC_WN7sO-mHJ8C3r-173" value="10: Válidar datos" style="edgeStyle=orthogonalEdgeStyle;html=1;align=left;spacingLeft=2;endArrow=block;rounded=0;entryX=1;entryY=0.75;labelBackgroundColor=none;fontFamily=Verdana;fontSize=11;entryDx=0;entryDy=0;" edge="1" parent="1" target="xUgybC_WN7sO-mHJ8C3r-219">
          <mxGeometry relative="1" as="geometry">
            <mxPoint x="353" y="630" as="sourcePoint" />
            <mxPoint x="360" y="650" as="targetPoint" />
            <Array as="points">
              <mxPoint x="390" y="630" />
              <mxPoint x="390" y="655" />
            </Array>
          </mxGeometry>
        </mxCell>
        <mxCell id="xUgybC_WN7sO-mHJ8C3r-174" value="alt" style="shape=umlFrame;whiteSpace=wrap;html=1;fillColor=none;strokeColor=#000000;fontFamily=Verdana;fontSize=12;width=40;height=20;" vertex="1" parent="1">
          <mxGeometry x="80" y="690" width="540" height="160" as="geometry" />
        </mxCell>
        <mxCell id="xUgybC_WN7sO-mHJ8C3r-175" value="[Datos inválidos]" style="text;html=1;strokeColor=none;fillColor=none;align=left;verticalAlign=middle;whiteSpace=wrap;rounded=0;fontFamily=Verdana;fontSize=11;fontStyle=1;" vertex="1" parent="1">
          <mxGeometry x="295" y="710" width="117" height="20" as="geometry" />
        </mxCell>
        <mxCell id="xUgybC_WN7sO-mHJ8C3r-180" value="" style="endArrow=none;dashed=1;html=1;labelBackgroundColor=none;fontFamily=Verdana;fontSize=11;strokeColor=#000000;" edge="1" parent="1">
          <mxGeometry width="50" height="50" relative="1" as="geometry">
            <mxPoint x="97.5" y="780" as="sourcePoint" />
            <mxPoint x="597.5" y="780" as="targetPoint" />
          </mxGeometry>
        </mxCell>
        <mxCell id="xUgybC_WN7sO-mHJ8C3r-181" value="[Datos válidos]" style="text;html=1;strokeColor=none;fillColor=none;align=left;verticalAlign=middle;whiteSpace=wrap;rounded=0;fontFamily=Verdana;fontSize=11;fontStyle=1;" vertex="1" parent="1">
          <mxGeometry x="295" y="790" width="105" height="20" as="geometry" />
        </mxCell>
        <mxCell id="xUgybC_WN7sO-mHJ8C3r-182" value="15: Mostrar mensaje de error" style="html=1;verticalAlign=bottom;endArrow=open;dashed=1;labelBackgroundColor=none;fontFamily=Verdana;fontSize=11;edgeStyle=elbowEdgeStyle;elbow=vertical;" edge="1" parent="1">
          <mxGeometry x="-0.0612" relative="1" as="geometry">
            <mxPoint x="345" y="760" as="sourcePoint" />
            <mxPoint x="100" y="760" as="targetPoint" />
            <mxPoint as="offset" />
          </mxGeometry>
        </mxCell>
        <mxCell id="xUgybC_WN7sO-mHJ8C3r-183" value="Administrador" style="html=1;whiteSpace=wrap;" vertex="1" parent="1">
          <mxGeometry x="40" y="90" width="110" height="50" as="geometry" />
        </mxCell>
        <mxCell id="xUgybC_WN7sO-mHJ8C3r-191" style="edgeStyle=orthogonalEdgeStyle;rounded=0;orthogonalLoop=1;jettySize=auto;html=1;dashed=1;endArrow=none;startFill=0;" edge="1" parent="1" target="xUgybC_WN7sO-mHJ8C3r-187">
          <mxGeometry relative="1" as="geometry">
            <mxPoint x="350" y="660" as="sourcePoint" />
          </mxGeometry>
        </mxCell>
        <mxCell id="xUgybC_WN7sO-mHJ8C3r-184" value="Sistema&lt;span style=&quot;color: rgba(0, 0, 0, 0); font-family: monospace; font-size: 0px; text-align: start; text-wrap-mode: nowrap;&quot;&gt;%3CmxGraphModel%3E%3Croot%3E%3CmxCell%20id%3D%220%22%2F%3E%3CmxCell%20id%3D%221%22%20parent%3D%220%22%2F%3E%3CmxCell%20id%3D%222%22%20value%3D%22Usuario%22%20style%3D%22html%3D1%3BwhiteSpace%3Dwrap%3B%22%20vertex%3D%221%22%20parent%3D%221%22%3E%3CmxGeometry%20x%3D%2270%22%20y%3D%2240%22%20width%3D%22110%22%20height%3D%2250%22%20as%3D%22geometry%22%2F%3E%3C%2FmxCell%3E%3C%2Froot%3E%3C%2FmxGraphModel%3E&lt;/span&gt;" style="html=1;whiteSpace=wrap;" vertex="1" parent="1">
          <mxGeometry x="295" y="90" width="110" height="50" as="geometry" />
        </mxCell>
        <mxCell id="xUgybC_WN7sO-mHJ8C3r-185" value="Base de datos" style="html=1;whiteSpace=wrap;" vertex="1" parent="1">
          <mxGeometry x="550" y="90" width="110" height="50" as="geometry" />
        </mxCell>
        <mxCell id="xUgybC_WN7sO-mHJ8C3r-192" style="edgeStyle=orthogonalEdgeStyle;rounded=0;orthogonalLoop=1;jettySize=auto;html=1;endArrow=none;startFill=0;dashed=1;" edge="1" parent="1" source="xUgybC_WN7sO-mHJ8C3r-207" target="xUgybC_WN7sO-mHJ8C3r-183">
          <mxGeometry relative="1" as="geometry" />
        </mxCell>
        <mxCell id="xUgybC_WN7sO-mHJ8C3r-186" value="Administrador" style="html=1;whiteSpace=wrap;" vertex="1" parent="1">
          <mxGeometry x="40" y="980" width="110" height="50" as="geometry" />
        </mxCell>
        <mxCell id="xUgybC_WN7sO-mHJ8C3r-187" value="Sistema&lt;span style=&quot;color: rgba(0, 0, 0, 0); font-family: monospace; font-size: 0px; text-align: start; text-wrap-mode: nowrap;&quot;&gt;%3CmxGraphModel%3E%3Croot%3E%3CmxCell%20id%3D%220%22%2F%3E%3CmxCell%20id%3D%221%22%20parent%3D%220%22%2F%3E%3CmxCell%20id%3D%222%22%20value%3D%22Usuario%22%20style%3D%22html%3D1%3BwhiteSpace%3Dwrap%3B%22%20vertex%3D%221%22%20parent%3D%221%22%3E%3CmxGeometry%20x%3D%2270%22%20y%3D%2240%22%20width%3D%22110%22%20height%3D%2250%22%20as%3D%22geometry%22%2F%3E%3C%2FmxCell%3E%3C%2Froot%3E%3C%2FmxGraphModel%3E&lt;/span&gt;" style="html=1;whiteSpace=wrap;" vertex="1" parent="1">
          <mxGeometry x="298.02" y="980" width="110" height="50" as="geometry" />
        </mxCell>
        <mxCell id="xUgybC_WN7sO-mHJ8C3r-188" value="Base de datos" style="html=1;whiteSpace=wrap;" vertex="1" parent="1">
          <mxGeometry x="550" y="980" width="110" height="50" as="geometry" />
        </mxCell>
        <mxCell id="xUgybC_WN7sO-mHJ8C3r-206" value="" style="edgeStyle=orthogonalEdgeStyle;rounded=0;orthogonalLoop=1;jettySize=auto;html=1;dashed=1;endArrow=none;startFill=0;" edge="1" parent="1" source="xUgybC_WN7sO-mHJ8C3r-184" target="xUgybC_WN7sO-mHJ8C3r-205">
          <mxGeometry relative="1" as="geometry">
            <mxPoint x="350" y="140" as="sourcePoint" />
            <mxPoint x="350" y="660" as="targetPoint" />
          </mxGeometry>
        </mxCell>
        <mxCell id="xUgybC_WN7sO-mHJ8C3r-205" value="" style="rounded=0;whiteSpace=wrap;html=1;" vertex="1" parent="1">
          <mxGeometry x="347.5" y="180" width="5" height="20" as="geometry" />
        </mxCell>
        <mxCell id="xUgybC_WN7sO-mHJ8C3r-208" value="" style="edgeStyle=orthogonalEdgeStyle;rounded=0;orthogonalLoop=1;jettySize=auto;html=1;endArrow=none;startFill=0;dashed=1;exitX=0.5;exitY=0;exitDx=0;exitDy=0;" edge="1" parent="1" source="xUgybC_WN7sO-mHJ8C3r-215" target="xUgybC_WN7sO-mHJ8C3r-207">
          <mxGeometry relative="1" as="geometry">
            <mxPoint x="95" y="520.29" as="sourcePoint" />
            <mxPoint x="95" y="230.29000000000002" as="targetPoint" />
          </mxGeometry>
        </mxCell>
        <mxCell id="xUgybC_WN7sO-mHJ8C3r-207" value="" style="rounded=0;whiteSpace=wrap;html=1;" vertex="1" parent="1">
          <mxGeometry x="92.5" y="299.8" width="5" height="20" as="geometry" />
        </mxCell>
        <mxCell id="xUgybC_WN7sO-mHJ8C3r-210" value="" style="edgeStyle=orthogonalEdgeStyle;rounded=0;orthogonalLoop=1;jettySize=auto;html=1;dashed=1;endArrow=none;startFill=0;entryX=0.25;entryY=0;entryDx=0;entryDy=0;exitX=0.5;exitY=1;exitDx=0;exitDy=0;" edge="1" parent="1" source="YYFsIK76gHKesapi2yxB-9">
          <mxGeometry relative="1" as="geometry">
            <mxPoint x="349" y="320" as="sourcePoint" />
            <mxPoint x="348.75" y="339.8" as="targetPoint" />
          </mxGeometry>
        </mxCell>
        <mxCell id="xUgybC_WN7sO-mHJ8C3r-209" value="" style="rounded=0;whiteSpace=wrap;html=1;" vertex="1" parent="1">
          <mxGeometry x="347.5" y="330" width="5" height="20" as="geometry" />
        </mxCell>
        <mxCell id="xUgybC_WN7sO-mHJ8C3r-214" value="" style="edgeStyle=orthogonalEdgeStyle;rounded=0;orthogonalLoop=1;jettySize=auto;html=1;dashed=1;endArrow=none;startFill=0;" edge="1" parent="1" source="xUgybC_WN7sO-mHJ8C3r-209" target="xUgybC_WN7sO-mHJ8C3r-213">
          <mxGeometry relative="1" as="geometry">
            <mxPoint x="350" y="330.29" as="sourcePoint" />
            <mxPoint x="350" y="750.29" as="targetPoint" />
          </mxGeometry>
        </mxCell>
        <mxCell id="xUgybC_WN7sO-mHJ8C3r-213" value="" style="rounded=0;whiteSpace=wrap;html=1;" vertex="1" parent="1">
          <mxGeometry x="347.5" y="469.99999999999994" width="5" height="20" as="geometry" />
        </mxCell>
        <mxCell id="xUgybC_WN7sO-mHJ8C3r-216" value="" style="edgeStyle=orthogonalEdgeStyle;rounded=0;orthogonalLoop=1;jettySize=auto;html=1;endArrow=none;startFill=0;dashed=1;" edge="1" parent="1" target="xUgybC_WN7sO-mHJ8C3r-215">
          <mxGeometry relative="1" as="geometry">
            <mxPoint x="95" y="750" as="sourcePoint" />
            <mxPoint x="95" y="520.29" as="targetPoint" />
          </mxGeometry>
        </mxCell>
        <mxCell id="xUgybC_WN7sO-mHJ8C3r-215" value="" style="rounded=0;whiteSpace=wrap;html=1;" vertex="1" parent="1">
          <mxGeometry x="92.5" y="499.99999999999994" width="5" height="20" as="geometry" />
        </mxCell>
        <mxCell id="xUgybC_WN7sO-mHJ8C3r-218" value="" style="edgeStyle=orthogonalEdgeStyle;rounded=0;orthogonalLoop=1;jettySize=auto;html=1;dashed=1;endArrow=none;startFill=0;entryX=0.5;entryY=0;entryDx=0;entryDy=0;" edge="1" parent="1" source="YYFsIK76gHKesapi2yxB-19" target="xUgybC_WN7sO-mHJ8C3r-219">
          <mxGeometry relative="1" as="geometry">
            <mxPoint x="350" y="560.29" as="sourcePoint" />
            <mxPoint x="349.9999999999999" y="600.29" as="targetPoint" />
          </mxGeometry>
        </mxCell>
        <mxCell id="xUgybC_WN7sO-mHJ8C3r-221" value="" style="edgeStyle=orthogonalEdgeStyle;rounded=0;orthogonalLoop=1;jettySize=auto;html=1;dashed=1;endArrow=none;startFill=0;" edge="1" parent="1" target="xUgybC_WN7sO-mHJ8C3r-219">
          <mxGeometry relative="1" as="geometry">
            <mxPoint x="349.9999999999999" y="690" as="sourcePoint" />
            <mxPoint x="350" y="970" as="targetPoint" />
          </mxGeometry>
        </mxCell>
        <mxCell id="xUgybC_WN7sO-mHJ8C3r-219" value="" style="rounded=0;whiteSpace=wrap;html=1;" vertex="1" parent="1">
          <mxGeometry x="347.5" y="640" width="5" height="20" as="geometry" />
        </mxCell>
        <mxCell id="xUgybC_WN7sO-mHJ8C3r-232" value="" style="edgeStyle=orthogonalEdgeStyle;rounded=0;orthogonalLoop=1;jettySize=auto;html=1;dashed=1;strokeColor=default;endArrow=none;startFill=0;entryX=0.5;entryY=0;entryDx=0;entryDy=0;" edge="1" parent="1" source="YYFsIK76gHKesapi2yxB-33" target="xUgybC_WN7sO-mHJ8C3r-188">
          <mxGeometry relative="1" as="geometry">
            <mxPoint x="605" y="140" as="sourcePoint" />
            <mxPoint x="605" y="780" as="targetPoint" />
          </mxGeometry>
        </mxCell>
        <mxCell id="xUgybC_WN7sO-mHJ8C3r-236" value="" style="edgeStyle=orthogonalEdgeStyle;rounded=0;orthogonalLoop=1;jettySize=auto;html=1;endArrow=none;startFill=0;dashed=1;" edge="1" parent="1" source="xUgybC_WN7sO-mHJ8C3r-237">
          <mxGeometry relative="1" as="geometry">
            <mxPoint x="95" y="970" as="sourcePoint" />
            <mxPoint x="95" y="830" as="targetPoint" />
          </mxGeometry>
        </mxCell>
        <mxCell id="xUgybC_WN7sO-mHJ8C3r-238" value="" style="edgeStyle=orthogonalEdgeStyle;rounded=0;orthogonalLoop=1;jettySize=auto;html=1;endArrow=none;startFill=0;dashed=1;" edge="1" parent="1" source="YYFsIK76gHKesapi2yxB-30" target="xUgybC_WN7sO-mHJ8C3r-237">
          <mxGeometry relative="1" as="geometry">
            <mxPoint x="95" y="970" as="sourcePoint" />
            <mxPoint x="95" y="830" as="targetPoint" />
          </mxGeometry>
        </mxCell>
        <mxCell id="xUgybC_WN7sO-mHJ8C3r-237" value="" style="rounded=0;whiteSpace=wrap;html=1;" vertex="1" parent="1">
          <mxGeometry x="92.5" y="750" width="5" height="20" as="geometry" />
        </mxCell>
        <mxCell id="YYFsIK76gHKesapi2yxB-6" value="2. Solicitar lista de eventos" style="html=1;verticalAlign=bottom;endArrow=block;labelBackgroundColor=none;fontFamily=Verdana;fontSize=11;elbow=vertical;entryX=0;entryY=0.25;entryDx=0;entryDy=0;" edge="1" parent="1">
          <mxGeometry x="0.0612" relative="1" as="geometry">
            <mxPoint x="350" y="234" as="sourcePoint" />
            <mxPoint x="598.02" y="234" as="targetPoint" />
            <mxPoint as="offset" />
          </mxGeometry>
        </mxCell>
        <mxCell id="YYFsIK76gHKesapi2yxB-7" value="" style="rounded=0;whiteSpace=wrap;html=1;" vertex="1" parent="1">
          <mxGeometry x="598.02" y="230" width="5" height="20" as="geometry" />
        </mxCell>
        <mxCell id="YYFsIK76gHKesapi2yxB-8" value="3. Devolver lista de eventos" style="html=1;verticalAlign=bottom;endArrow=open;labelBackgroundColor=none;fontFamily=Verdana;fontSize=11;edgeStyle=elbowEdgeStyle;elbow=vertical;entryX=1;entryY=0.25;entryDx=0;entryDy=0;" edge="1" parent="1" target="YYFsIK76gHKesapi2yxB-9">
          <mxGeometry relative="1" as="geometry">
            <mxPoint x="600" y="275" as="sourcePoint" />
            <mxPoint x="356.98" y="270" as="targetPoint" />
            <Array as="points">
              <mxPoint x="472.5" y="275" />
            </Array>
            <mxPoint as="offset" />
          </mxGeometry>
        </mxCell>
        <mxCell id="YYFsIK76gHKesapi2yxB-10" value="" style="edgeStyle=orthogonalEdgeStyle;rounded=0;orthogonalLoop=1;jettySize=auto;html=1;dashed=1;endArrow=none;startFill=0;exitX=0.25;exitY=1;exitDx=0;exitDy=0;entryX=0.25;entryY=0;entryDx=0;entryDy=0;" edge="1" parent="1" source="xUgybC_WN7sO-mHJ8C3r-205" target="YYFsIK76gHKesapi2yxB-9">
          <mxGeometry relative="1" as="geometry">
            <mxPoint x="349" y="200" as="sourcePoint" />
            <mxPoint x="349" y="310" as="targetPoint" />
          </mxGeometry>
        </mxCell>
        <mxCell id="YYFsIK76gHKesapi2yxB-9" value="" style="rounded=0;whiteSpace=wrap;html=1;" vertex="1" parent="1">
          <mxGeometry x="347.5" y="270" width="5" height="20" as="geometry" />
        </mxCell>
        <mxCell id="YYFsIK76gHKesapi2yxB-12" value="" style="edgeStyle=orthogonalEdgeStyle;rounded=0;orthogonalLoop=1;jettySize=auto;html=1;dashed=1;strokeColor=default;endArrow=none;startFill=0;" edge="1" parent="1" source="xUgybC_WN7sO-mHJ8C3r-185" target="YYFsIK76gHKesapi2yxB-11">
          <mxGeometry relative="1" as="geometry">
            <mxPoint x="605" y="140" as="sourcePoint" />
            <mxPoint x="605" y="710" as="targetPoint" />
          </mxGeometry>
        </mxCell>
        <mxCell id="YYFsIK76gHKesapi2yxB-11" value="" style="rounded=0;whiteSpace=wrap;html=1;" vertex="1" parent="1">
          <mxGeometry x="603.02" y="370" width="5" height="20" as="geometry" />
        </mxCell>
        <mxCell id="YYFsIK76gHKesapi2yxB-13" value="8. Mostrar datos&amp;nbsp; del evento" style="html=1;verticalAlign=bottom;endArrow=open;labelBackgroundColor=none;fontFamily=Verdana;fontSize=11;elbow=vertical;entryX=1;entryY=0.25;entryDx=0;entryDy=0;" edge="1" parent="1" target="YYFsIK76gHKesapi2yxB-14">
          <mxGeometry x="0.0015" relative="1" as="geometry">
            <mxPoint x="340" y="435.2" as="sourcePoint" />
            <mxPoint x="102.5" y="435" as="targetPoint" />
            <mxPoint as="offset" />
          </mxGeometry>
        </mxCell>
        <mxCell id="YYFsIK76gHKesapi2yxB-14" value="" style="rounded=0;whiteSpace=wrap;html=1;" vertex="1" parent="1">
          <mxGeometry x="92.5" y="430" width="5" height="20" as="geometry" />
        </mxCell>
        <mxCell id="YYFsIK76gHKesapi2yxB-15" value="7. Devolver datos del evento" style="html=1;verticalAlign=bottom;endArrow=open;labelBackgroundColor=none;fontFamily=Verdana;fontSize=11;elbow=vertical;entryX=1;entryY=0.25;entryDx=0;entryDy=0;" edge="1" parent="1" target="YYFsIK76gHKesapi2yxB-16">
          <mxGeometry x="0.0015" relative="1" as="geometry">
            <mxPoint x="595" y="405.2" as="sourcePoint" />
            <mxPoint x="357.5" y="405" as="targetPoint" />
            <mxPoint as="offset" />
          </mxGeometry>
        </mxCell>
        <mxCell id="YYFsIK76gHKesapi2yxB-16" value="" style="rounded=0;whiteSpace=wrap;html=1;" vertex="1" parent="1">
          <mxGeometry x="347.5" y="400" width="5" height="20" as="geometry" />
        </mxCell>
        <mxCell id="YYFsIK76gHKesapi2yxB-18" value="" style="edgeStyle=orthogonalEdgeStyle;rounded=0;orthogonalLoop=1;jettySize=auto;html=1;dashed=1;endArrow=none;startFill=0;" edge="1" parent="1" source="xUgybC_WN7sO-mHJ8C3r-213" target="YYFsIK76gHKesapi2yxB-17">
          <mxGeometry relative="1" as="geometry">
            <mxPoint x="350" y="490" as="sourcePoint" />
            <mxPoint x="350" y="600" as="targetPoint" />
          </mxGeometry>
        </mxCell>
        <mxCell id="YYFsIK76gHKesapi2yxB-17" value="" style="rounded=0;whiteSpace=wrap;html=1;" vertex="1" parent="1">
          <mxGeometry x="347.5" y="550" width="5" height="20" as="geometry" />
        </mxCell>
        <mxCell id="YYFsIK76gHKesapi2yxB-20" value="" style="edgeStyle=orthogonalEdgeStyle;rounded=0;orthogonalLoop=1;jettySize=auto;html=1;dashed=1;endArrow=none;startFill=0;entryX=0.5;entryY=0;entryDx=0;entryDy=0;" edge="1" parent="1" source="YYFsIK76gHKesapi2yxB-17" target="YYFsIK76gHKesapi2yxB-19">
          <mxGeometry relative="1" as="geometry">
            <mxPoint x="350" y="570" as="sourcePoint" />
            <mxPoint x="350" y="690" as="targetPoint" />
          </mxGeometry>
        </mxCell>
        <mxCell id="YYFsIK76gHKesapi2yxB-19" value="" style="rounded=0;whiteSpace=wrap;html=1;" vertex="1" parent="1">
          <mxGeometry x="347.5" y="590" width="5" height="20" as="geometry" />
        </mxCell>
        <mxCell id="YYFsIK76gHKesapi2yxB-22" value="11: Mostrar mensaje de éxito" style="html=1;verticalAlign=bottom;endArrow=open;dashed=1;labelBackgroundColor=none;fontFamily=Verdana;fontSize=11;edgeStyle=elbowEdgeStyle;elbow=vertical;" edge="1" parent="1">
          <mxGeometry relative="1" as="geometry">
            <mxPoint x="345" y="830" as="sourcePoint" />
            <mxPoint x="100" y="830" as="targetPoint" />
          </mxGeometry>
        </mxCell>
        <mxCell id="YYFsIK76gHKesapi2yxB-23" value="12: Guardar evento" style="html=1;verticalAlign=bottom;endArrow=block;labelBackgroundColor=none;fontFamily=Verdana;fontSize=11;elbow=vertical;entryX=0;entryY=0.25;entryDx=0;entryDy=0;" edge="1" parent="1" target="YYFsIK76gHKesapi2yxB-33">
          <mxGeometry relative="1" as="geometry">
            <mxPoint x="358" y="875" as="sourcePoint" />
            <mxPoint x="598.02" y="880" as="targetPoint" />
          </mxGeometry>
        </mxCell>
        <mxCell id="YYFsIK76gHKesapi2yxB-24" value="13: Confirmar guardado exitoso" style="html=1;verticalAlign=bottom;endArrow=open;dashed=1;labelBackgroundColor=none;fontFamily=Verdana;fontSize=11;edgeStyle=elbowEdgeStyle;elbow=vertical;" edge="1" parent="1">
          <mxGeometry relative="1" as="geometry">
            <mxPoint x="598.02" y="910" as="sourcePoint" />
            <mxPoint x="358.02" y="910" as="targetPoint" />
          </mxGeometry>
        </mxCell>
        <mxCell id="YYFsIK76gHKesapi2yxB-25" value="" style="html=1;verticalAlign=bottom;endArrow=open;labelBackgroundColor=none;fontFamily=Verdana;fontSize=11;elbow=vertical;dashed=1;entryX=1;entryY=0.25;entryDx=0;entryDy=0;" edge="1" parent="1" target="YYFsIK76gHKesapi2yxB-30">
          <mxGeometry x="-0.0816" relative="1" as="geometry">
            <mxPoint x="350" y="945" as="sourcePoint" />
            <mxPoint x="102.5" y="950.03" as="targetPoint" />
            <mxPoint as="offset" />
          </mxGeometry>
        </mxCell>
        <mxCell id="YYFsIK76gHKesapi2yxB-27" value="" style="rounded=0;whiteSpace=wrap;html=1;" vertex="1" parent="1">
          <mxGeometry x="92.5" y="820" width="5" height="20" as="geometry" />
        </mxCell>
        <mxCell id="YYFsIK76gHKesapi2yxB-29" value="" style="rounded=0;whiteSpace=wrap;html=1;" vertex="1" parent="1">
          <mxGeometry x="350.52" y="910" width="5" height="20" as="geometry" />
        </mxCell>
        <mxCell id="YYFsIK76gHKesapi2yxB-34" value="" style="edgeStyle=orthogonalEdgeStyle;rounded=0;orthogonalLoop=1;jettySize=auto;html=1;dashed=1;strokeColor=default;endArrow=none;startFill=0;entryX=0.5;entryY=0;entryDx=0;entryDy=0;" edge="1" parent="1" source="YYFsIK76gHKesapi2yxB-11" target="YYFsIK76gHKesapi2yxB-33">
          <mxGeometry relative="1" as="geometry">
            <mxPoint x="606" y="390" as="sourcePoint" />
            <mxPoint x="605" y="970" as="targetPoint" />
          </mxGeometry>
        </mxCell>
        <mxCell id="YYFsIK76gHKesapi2yxB-33" value="" style="rounded=0;whiteSpace=wrap;html=1;" vertex="1" parent="1">
          <mxGeometry x="602.5" y="870" width="5" height="20" as="geometry" />
        </mxCell>
        <mxCell id="YYFsIK76gHKesapi2yxB-35" value="" style="edgeStyle=orthogonalEdgeStyle;rounded=0;orthogonalLoop=1;jettySize=auto;html=1;endArrow=none;startFill=0;dashed=1;" edge="1" parent="1" source="xUgybC_WN7sO-mHJ8C3r-186" target="YYFsIK76gHKesapi2yxB-30">
          <mxGeometry relative="1" as="geometry">
            <mxPoint x="95" y="970" as="sourcePoint" />
            <mxPoint x="95" y="770" as="targetPoint" />
          </mxGeometry>
        </mxCell>
        <mxCell id="YYFsIK76gHKesapi2yxB-30" value="" style="rounded=0;whiteSpace=wrap;html=1;" vertex="1" parent="1">
          <mxGeometry x="92.5" y="940" width="5" height="20" as="geometry" />
        </mxCell>
        <mxCell id="YYFsIK76gHKesapi2yxB-36" value="&lt;span style=&quot;font-family: Verdana; font-size: 11px; text-wrap-mode: nowrap;&quot;&gt;14. Notificación de éxito:&amp;nbsp;&lt;/span&gt;&lt;div&gt;&lt;span style=&quot;font-family: Verdana; font-size: 11px; text-wrap-mode: nowrap;&quot;&gt;Evento editado correctamente&lt;/span&gt;&lt;/div&gt;" style="text;html=1;align=center;verticalAlign=middle;whiteSpace=wrap;rounded=0;" vertex="1" parent="1">
          <mxGeometry x="140" y="910" width="170" height="30" as="geometry" />
        </mxCell>
      </root>
    </mxGraphModel>
  </diagram>
</mxfile>
